<svg xmlns="http://www.w3.org/2000/svg" xmlns:xlink="http://www.w3.org/1999/xlink" width="500" zoomAndPan="magnify" viewBox="0 0 375 374.999991" height="500" preserveAspectRatio="xMidYMid meet" version="1.0"><defs><g/><clipPath id="4298e80d02"><path d="M 65.367188 153.9375 L 121.613281 153.9375 L 121.613281 219.1875 L 65.367188 219.1875 Z M 65.367188 153.9375 " clip-rule="nonzero"/></clipPath><clipPath id="ad28d97718"><path d="M 93.558594 153.9375 L 121.753906 170.339844 L 121.753906 203.148438 L 93.558594 219.550781 L 65.367188 203.148438 L 65.367188 170.339844 Z M 93.558594 153.9375 " clip-rule="nonzero"/></clipPath></defs><g clip-path="url(#4298e80d02)"><g clip-path="url(#ad28d97718)"><path stroke-linecap="butt" transform="matrix(0.75, 0, 0, 0.75, 65.366499, 153.938383)" fill="none" stroke-linejoin="miter" d="M 37.589463 -0.00117692 L 75.183215 21.868616 L 75.183215 65.613411 L 37.589463 87.483204 L 0.000918523 65.613411 L 0.000918523 21.868616 Z M 37.589463 -0.00117692 " stroke="#004aad" stroke-width="26" stroke-opacity="1" stroke-miterlimit="4"/></g></g><g fill="#004aad" fill-opacity="1"><g transform="translate(79.719015, 198.978328)"><g><path d="M 12.46875 0.390625 C 10.269531 0.390625 8.117188 0.117188 6.015625 -0.421875 C 3.910156 -0.960938 2.234375 -1.644531 0.984375 -2.46875 L 3.546875 -7.984375 C 4.734375 -7.234375 6.164062 -6.617188 7.84375 -6.140625 C 9.519531 -5.660156 11.160156 -5.421875 12.765625 -5.421875 C 16.015625 -5.421875 17.640625 -6.226562 17.640625 -7.84375 C 17.640625 -8.59375 17.195312 -9.128906 16.3125 -9.453125 C 15.425781 -9.785156 14.0625 -10.066406 12.21875 -10.296875 C 10.050781 -10.628906 8.257812 -11.007812 6.84375 -11.4375 C 5.4375 -11.863281 4.210938 -12.617188 3.171875 -13.703125 C 2.140625 -14.785156 1.625 -16.332031 1.625 -18.34375 C 1.625 -20.019531 2.109375 -21.503906 3.078125 -22.796875 C 4.046875 -24.097656 5.457031 -25.109375 7.3125 -25.828125 C 9.175781 -26.554688 11.375 -26.921875 13.90625 -26.921875 C 15.78125 -26.921875 17.644531 -26.710938 19.5 -26.296875 C 21.351562 -25.890625 22.890625 -25.320312 24.109375 -24.59375 L 21.546875 -19.125 C 19.210938 -20.4375 16.664062 -21.09375 13.90625 -21.09375 C 12.257812 -21.09375 11.023438 -20.863281 10.203125 -20.40625 C 9.378906 -19.945312 8.96875 -19.359375 8.96875 -18.640625 C 8.96875 -17.816406 9.410156 -17.238281 10.296875 -16.90625 C 11.191406 -16.582031 12.609375 -16.269531 14.546875 -15.96875 C 16.710938 -15.613281 18.484375 -15.226562 19.859375 -14.8125 C 21.242188 -14.40625 22.445312 -13.65625 23.46875 -12.5625 C 24.488281 -11.476562 25 -9.96875 25 -8.03125 C 25 -6.394531 24.503906 -4.929688 23.515625 -3.640625 C 22.523438 -2.359375 21.082031 -1.363281 19.1875 -0.65625 C 17.300781 0.0390625 15.0625 0.390625 12.46875 0.390625 Z M 12.46875 0.390625 "/></g></g></g><g fill="#004aad" fill-opacity="1"><g transform="translate(124.726535, 198.978328)"><g><path d="M 16.171875 0.390625 C 13.378906 0.390625 10.875 -0.191406 8.65625 -1.359375 C 6.4375 -2.523438 4.703125 -4.140625 3.453125 -6.203125 C 2.203125 -8.273438 1.578125 -10.628906 1.578125 -13.265625 C 1.578125 -15.890625 2.203125 -18.238281 3.453125 -20.3125 C 4.703125 -22.382812 6.4375 -24.003906 8.65625 -25.171875 C 10.875 -26.335938 13.378906 -26.921875 16.171875 -26.921875 C 18.960938 -26.921875 21.457031 -26.335938 23.65625 -25.171875 C 25.863281 -24.003906 27.59375 -22.382812 28.84375 -20.3125 C 30.09375 -18.238281 30.71875 -15.890625 30.71875 -13.265625 C 30.71875 -10.628906 30.09375 -8.273438 28.84375 -6.203125 C 27.59375 -4.140625 25.863281 -2.523438 23.65625 -1.359375 C 21.457031 -0.191406 18.960938 0.390625 16.171875 0.390625 Z M 16.171875 -5.921875 C 18.140625 -5.921875 19.753906 -6.582031 21.015625 -7.90625 C 22.285156 -9.238281 22.921875 -11.023438 22.921875 -13.265625 C 22.921875 -15.492188 22.285156 -17.273438 21.015625 -18.609375 C 19.753906 -19.941406 18.140625 -20.609375 16.171875 -20.609375 C 14.203125 -20.609375 12.570312 -19.941406 11.28125 -18.609375 C 10 -17.273438 9.359375 -15.492188 9.359375 -13.265625 C 9.359375 -11.023438 10 -9.238281 11.28125 -7.90625 C 12.570312 -6.582031 14.203125 -5.921875 16.171875 -5.921875 Z M 16.171875 -5.921875 "/></g></g></g><g fill="#004aad" fill-opacity="1"><g transform="translate(155.039042, 198.978328)"><g><path d="M 11.984375 -25.9375 L 18.78125 -25.9375 L 18.78125 -20.015625 L 12.171875 -20.015625 L 12.171875 0 L 4.484375 0 L 4.484375 -20.015625 L 0.390625 -20.015625 L 0.390625 -25.9375 L 4.484375 -25.9375 L 4.484375 -27.109375 C 4.484375 -30.140625 5.378906 -32.539062 7.171875 -34.3125 C 8.960938 -36.082031 11.484375 -36.96875 14.734375 -36.96875 C 15.890625 -36.96875 16.984375 -36.84375 18.015625 -36.59375 C 19.054688 -36.351562 19.921875 -36.003906 20.609375 -35.546875 L 18.578125 -29.96875 C 17.691406 -30.59375 16.660156 -30.90625 15.484375 -30.90625 C 13.148438 -30.90625 11.984375 -29.625 11.984375 -27.0625 Z M 11.984375 -25.9375 "/></g></g></g><g fill="#004aad" fill-opacity="1"><g transform="translate(172.142105, 198.978328)"><g><path d="M 20.65625 -1.28125 C 19.894531 -0.71875 18.960938 -0.296875 17.859375 -0.015625 C 16.765625 0.253906 15.609375 0.390625 14.390625 0.390625 C 11.234375 0.390625 8.789062 -0.410156 7.0625 -2.015625 C 5.34375 -3.628906 4.484375 -6 4.484375 -9.125 L 4.484375 -20.015625 L 0.390625 -20.015625 L 0.390625 -25.9375 L 4.484375 -25.9375 L 4.484375 -32.390625 L 12.171875 -32.390625 L 12.171875 -25.9375 L 18.78125 -25.9375 L 18.78125 -20.015625 L 12.171875 -20.015625 L 12.171875 -9.21875 C 12.171875 -8.101562 12.457031 -7.238281 13.03125 -6.625 C 13.613281 -6.019531 14.429688 -5.71875 15.484375 -5.71875 C 16.691406 -5.71875 17.722656 -6.046875 18.578125 -6.703125 Z M 20.65625 -1.28125 "/></g></g></g><g fill="#004aad" fill-opacity="1"><g transform="translate(191.611038, 198.978328)"><g><path d="M 30.5625 -36.578125 L 30.5625 0 L 23.21875 0 L 23.21875 -3.0625 C 21.3125 -0.757812 18.550781 0.390625 14.9375 0.390625 C 12.4375 0.390625 10.175781 -0.164062 8.15625 -1.28125 C 6.132812 -2.394531 4.546875 -3.988281 3.390625 -6.0625 C 2.242188 -8.132812 1.671875 -10.535156 1.671875 -13.265625 C 1.671875 -15.992188 2.242188 -18.390625 3.390625 -20.453125 C 4.546875 -22.523438 6.132812 -24.117188 8.15625 -25.234375 C 10.175781 -26.359375 12.4375 -26.921875 14.9375 -26.921875 C 18.320312 -26.921875 20.96875 -25.851562 22.875 -23.71875 L 22.875 -36.578125 Z M 16.265625 -5.921875 C 18.203125 -5.921875 19.8125 -6.582031 21.09375 -7.90625 C 22.375 -9.238281 23.015625 -11.023438 23.015625 -13.265625 C 23.015625 -15.492188 22.375 -17.273438 21.09375 -18.609375 C 19.8125 -19.941406 18.203125 -20.609375 16.265625 -20.609375 C 14.296875 -20.609375 12.671875 -19.941406 11.390625 -18.609375 C 10.109375 -17.273438 9.46875 -15.492188 9.46875 -13.265625 C 9.46875 -11.023438 10.109375 -9.238281 11.390625 -7.90625 C 12.671875 -6.582031 14.296875 -5.921875 16.265625 -5.921875 Z M 16.265625 -5.921875 "/></g></g></g><g fill="#004aad" fill-opacity="1"><g transform="translate(223.747242, 198.978328)"><g><path d="M 29.53125 -13.15625 C 29.53125 -13.0625 29.476562 -12.375 29.375 -11.09375 L 9.3125 -11.09375 C 9.675781 -9.445312 10.53125 -8.144531 11.875 -7.1875 C 13.226562 -6.238281 14.90625 -5.765625 16.90625 -5.765625 C 18.289062 -5.765625 19.515625 -5.96875 20.578125 -6.375 C 21.648438 -6.789062 22.644531 -7.441406 23.5625 -8.328125 L 27.65625 -3.890625 C 25.15625 -1.035156 21.507812 0.390625 16.71875 0.390625 C 13.71875 0.390625 11.066406 -0.191406 8.765625 -1.359375 C 6.472656 -2.523438 4.703125 -4.140625 3.453125 -6.203125 C 2.203125 -8.273438 1.578125 -10.628906 1.578125 -13.265625 C 1.578125 -15.859375 2.191406 -18.195312 3.421875 -20.28125 C 4.660156 -22.375 6.351562 -24.003906 8.5 -25.171875 C 10.65625 -26.335938 13.0625 -26.921875 15.71875 -26.921875 C 18.320312 -26.921875 20.675781 -26.359375 22.78125 -25.234375 C 24.882812 -24.117188 26.535156 -22.515625 27.734375 -20.421875 C 28.929688 -18.335938 29.53125 -15.914062 29.53125 -13.15625 Z M 15.78125 -21.09375 C 14.03125 -21.09375 12.5625 -20.597656 11.375 -19.609375 C 10.195312 -18.628906 9.476562 -17.285156 9.21875 -15.578125 L 22.28125 -15.578125 C 22.019531 -17.253906 21.296875 -18.59375 20.109375 -19.59375 C 18.929688 -20.59375 17.488281 -21.09375 15.78125 -21.09375 Z M 15.78125 -21.09375 "/></g></g></g><g fill="#004aad" fill-opacity="1"><g transform="translate(252.876825, 198.978328)"><g><path d="M 29.875 -26.515625 L 18.6875 0 L 10.75 0 L -0.390625 -26.515625 L 7.546875 -26.515625 L 14.890625 -8.484375 L 22.484375 -26.515625 Z M 29.875 -26.515625 "/></g></g></g><g fill="#004aad" fill-opacity="1"><g transform="translate(280.379859, 198.978328)"><g><path d="M 25.828125 0 L 17.5 -11.984375 L 9.3125 0 L 0.140625 0 L 12.921875 -17.546875 L 0.78125 -34.5 L 9.859375 -34.5 L 17.796875 -23.3125 L 25.578125 -34.5 L 34.21875 -34.5 L 22.1875 -17.84375 L 35.046875 0 Z M 25.828125 0 "/></g></g></g></svg>